<?xml version="1.0" encoding="UTF-8"?>
<svg version="1.1" xmlns="http://www.w3.org/2000/svg" width="98" height="57">
<path d="M0 0 C3.52172386 1.17390795 4.40206869 2.55330497 6.1484375 5.74609375 C7.75638309 10.00198644 7.83688669 14.489917 8 19 C9.60875 18.01 9.60875 18.01 11.25 17 C16.68068634 14.2260523 22.04456946 14.64267417 28 15 C28.495 15.99 28.495 15.99 29 17 C27.72754661 19.52993675 26.40349305 21.89832935 24.9375 24.3125 C24.55400391 24.97701172 24.17050781 25.64152344 23.77539062 26.32617188 C21.0587851 30.8508641 18.31408562 33.93336083 14 37 C12.80375 37.28875 11.6075 37.5775 10.375 37.875 C6.70923371 39.0969221 6.35582393 39.45658315 4.5625 42.625 C4.046875 43.73875 3.53125 44.8525 3 46 C1.125 45.375 1.125 45.375 -1 44 C-2.25 40.875 -2.25 40.875 -3 38 C-3.99 38.495 -3.99 38.495 -5 39 C-6.99960012 39.039992 -9.00047242 39.04346799 -11 39 C-11.6875 37.3125 -11.6875 37.3125 -12 35 C-11.505 34.195625 -11.01 33.39125 -10.5 32.5625 C-8.73375111 30.1460905 -8.73375111 30.1460905 -9.3125 27.625 C-9.539375 26.75875 -9.76625 25.8925 -10 25 C-10.56216569 18.80077565 -8.96904739 14.9967165 -6.125 9.6875 C-5.57779297 8.61532227 -5.57779297 8.61532227 -5.01953125 7.52148438 C-3.5557911 4.69779656 -2.26183916 2.26183916 0 0 Z " fill="#D3FF00" transform="translate(69,0)"/>
<path d="M0 0 C1.32 0.33 2.64 0.66 4 1 C3.67 2.98 3.34 4.96 3 7 C3.63808594 6.91621094 4.27617188 6.83242188 4.93359375 6.74609375 C6.17302734 6.59333984 6.17302734 6.59333984 7.4375 6.4375 C8.67306641 6.28087891 8.67306641 6.28087891 9.93359375 6.12109375 C10.95646484 6.06115234 10.95646484 6.06115234 12 6 C12.495 6.495 12.495 6.495 13 7 C12.93579251 8.62853535 12.7987936 10.25449212 12.625 11.875 C12.48964844 13.20144531 12.48964844 13.20144531 12.3515625 14.5546875 C12 17 12 17 11 20 C6.38 20 1.76 20 -3 20 C-3 19.34 -3 18.68 -3 18 C-3.99 18.66 -4.98 19.32 -6 20 C-8.48046875 20.1953125 -8.48046875 20.1953125 -11.1875 20.125 C-12.08855469 20.10695313 -12.98960938 20.08890625 -13.91796875 20.0703125 C-14.60503906 20.04710938 -15.29210937 20.02390625 -16 20 C-16 17.03 -16 14.06 -16 11 C-16.99 11.33 -17.98 11.66 -19 12 C-19.33 14.64 -19.66 17.28 -20 20 C-20.78375 19.814375 -21.5675 19.62875 -22.375 19.4375 C-24.97089775 18.74037734 -24.97089775 18.74037734 -27 20 C-29.55157655 20.0716735 -32.07472971 20.09308442 -34.625 20.0625 C-35.33140625 20.05798828 -36.0378125 20.05347656 -36.765625 20.04882812 C-38.51045275 20.03703875 -40.255237 20.01910324 -42 20 C-43.31223496 16.06329512 -42.24296256 13.87511856 -41 10 C-41.99 10 -42.98 10 -44 10 C-44 9.01 -44 8.02 -44 7 C-42.68 7 -41.36 7 -40 7 C-40 5.68 -40 4.36 -40 3 C-38.68 3 -37.36 3 -36 3 C-36 3.66 -36 4.32 -36 5 C-34.68 5 -33.36 5 -32 5 C-31.67 5.99 -31.34 6.98 -31 8 C-30.15695313 7.50886719 -30.15695313 7.50886719 -29.296875 7.0078125 C-26.73140036 5.88214506 -25.03157723 5.7931889 -22.25 5.875 C-21.45078125 5.89304687 -20.6515625 5.91109375 -19.828125 5.9296875 C-19.22484375 5.95289063 -18.6215625 5.97609375 -18 6 C-18 6.66 -18 7.32 -18 8 C-16.02 7.34 -14.04 6.68 -12 6 C-11.34 7.32 -10.68 8.64 -10 10 C-9.2575 9.505 -8.515 9.01 -7.75 8.5 C-5 7 -5 7 -1 7 C-0.67 4.69 -0.34 2.38 0 0 Z M-37 9 C-37.73080266 10.97746603 -38.39421747 12.98072489 -39 15 C-38.67 15.66 -38.34 16.32 -38 17 C-34.21965377 13.52263974 -34.21965377 13.52263974 -32 9 C-33.65 9 -35.3 9 -37 9 Z M-29.125 10.75 C-31.4267896 13.02400691 -31.4267896 13.02400691 -31 17 C-28.23737447 16.6189482 -27.15856106 16.16402868 -25.1875 14.125 C-24.795625 13.42375 -24.40375 12.7225 -24 12 C-24.33 11.01 -24.66 10.02 -25 9 C-27.2014965 8.78809758 -27.2014965 8.78809758 -29.125 10.75 Z M1 12 C1.33 12.66 1.66 13.32 2 14 C4.31 13.01 6.62 12.02 9 11 C9 10.34 9 9.68 9 9 C5.91990121 9 3.68864864 10.5972268 1 12 Z M-9 14 C-9.33 14.99 -9.66 15.98 -10 17 C-7.25851328 16.62952882 -5.41406801 16.31412056 -3.1875 14.625 C-1.70499171 12.93174698 -1.70499171 12.93174698 -2 10 C-5.19144562 10 -6.69839386 11.93445603 -9 14 Z M6 14 C5.01 14.99 4.02 15.98 3 17 C4.65 16.34 6.3 15.68 8 15 C7.34 14.67 6.68 14.34 6 14 Z " fill="#00CCFF" transform="translate(44,37)"/>
<path d="M0 0 C0.33 0.66 0.66 1.32 1 2 C-0.27245339 4.52993675 -1.59650695 6.89832935 -3.0625 9.3125 C-3.44599609 9.97701172 -3.82949219 10.64152344 -4.22460938 11.32617188 C-6.9412149 15.8508641 -9.68591438 18.93336083 -14 22 C-15.19625 22.28875 -16.3925 22.5775 -17.625 22.875 C-21.29076629 24.0969221 -21.64417607 24.45658315 -23.4375 27.625 C-23.953125 28.73875 -24.46875 29.8525 -25 31 C-28.875 29.125 -28.875 29.125 -30 28 C-30.04092937 25.66702567 -30.04241723 23.33294775 -30 21 C-28 20 -28 20 -24.875 20.9375 C-23.92625 21.288125 -22.9775 21.63875 -22 22 C-22.94933899 18.64566891 -23.89748835 15.30753495 -25 12 C-23.32899006 7.55310469 -20.54914869 3.89989537 -16.4375 1.5 C-11.18248351 -0.79970011 -5.61672079 -0.33700325 0 0 Z " fill="#00E5FD" transform="translate(97,15)"/>
<path d="M0 0 C1.32 0 2.64 0 4 0 C4 0.66 4 1.32 4 2 C5.32 2 6.64 2 8 2 C8.33 2.99 8.66 3.98 9 5 C9.84304688 4.50886719 9.84304688 4.50886719 10.703125 4.0078125 C13.26859964 2.88214506 14.96842277 2.7931889 17.75 2.875 C18.54921875 2.89304688 19.3484375 2.91109375 20.171875 2.9296875 C20.77515625 2.95289063 21.3784375 2.97609375 22 3 C22.33 4.98 22.66 6.96 23 9 C22.34 9 21.68 9 21 9 C20.67 11.64 20.34 14.28 20 17 C19.21625 16.814375 18.4325 16.62875 17.625 16.4375 C15.02910225 15.74037734 15.02910225 15.74037734 13 17 C10.44842345 17.0716735 7.92527029 17.09308442 5.375 17.0625 C4.66859375 17.05798828 3.9621875 17.05347656 3.234375 17.04882812 C1.48954725 17.03703875 -0.255237 17.01910324 -2 17 C-3.31223496 13.06329512 -2.24296256 10.87511856 -1 7 C-1.99 7 -2.98 7 -4 7 C-4 6.01 -4 5.02 -4 4 C-2.68 4 -1.36 4 0 4 C0 2.68 0 1.36 0 0 Z M3 6 C2.26919734 7.97746603 1.60578253 9.98072489 1 12 C1.33 12.66 1.66 13.32 2 14 C5.78034623 10.52263974 5.78034623 10.52263974 8 6 C6.35 6 4.7 6 3 6 Z M10.875 7.75 C8.5732104 10.02400691 8.5732104 10.02400691 9 14 C11.76262553 13.6189482 12.84143894 13.16402868 14.8125 11.125 C15.204375 10.42375 15.59625 9.7225 16 9 C15.67 8.01 15.34 7.02 15 6 C12.7985035 5.78809758 12.7985035 5.78809758 10.875 7.75 Z " fill="#F3D000" transform="translate(4,40)"/>
<path d="M0 0 C0.99 0.33 1.98 0.66 3 1 C3.33 1.99 3.66 2.98 4 4 C5.65 3.34 7.3 2.68 9 2 C8.40072174 5.35595828 7.15377564 7.37801226 5 10 C6.32 10 7.64 10 9 10 C8.67 11.32 8.34 12.64 8 14 C4.7 14 1.4 14 -2 14 C-1.96744792 11.75390625 -1.93489583 9.5078125 -1.90234375 7.26171875 C-1.90342145 4.83138666 -1.90342145 4.83138666 -3 2 C-2.01 1.34 -1.02 0.68 0 0 Z " fill="#00F949" transform="translate(30,43)"/>
<path d="M0 0 C2.31 0 4.62 0 7 0 C7.33 1.98 7.66 3.96 8 6 C7.34 6 6.68 6 6 6 C5.67 8.64 5.34 11.28 5 14 C2.69 13.67 0.38 13.34 -2 13 C-2.33 12.01 -2.66 11.02 -3 10 C-2.2884375 9.1028125 -2.2884375 9.1028125 -1.5625 8.1875 C0.46962336 5.3425273 0.23298497 3.41711283 0 0 Z " fill="#50FF0D" transform="translate(19,43)"/>
<path d="M0 0 C1.65 0.33 3.3 0.66 5 1 C4.85851011 2.6045556 4.71164314 4.20863767 4.5625 5.8125 C4.48128906 6.70582031 4.40007813 7.59914063 4.31640625 8.51953125 C4 11 4 11 3 14 C0.69 14 -1.62 14 -4 14 C-3.7525 13.0409375 -3.7525 13.0409375 -3.5 12.0625 C-2.96073333 10.19173179 -2.96073333 10.19173179 -3 9 C-2.67619874 7.66431979 -2.34342449 6.33076989 -2 5 C-1.01 5 -0.02 5 1 5 C0.67 3.35 0.34 1.7 0 0 Z " fill="#003BFF" transform="translate(52,43)"/>
<path d="M0 0 C2.94365036 0.08013567 3.75101278 0.11218266 6.0625 2.0625 C7.19739245 4.6869388 7.29840819 6.54410178 7.0625 9.375 C1.09218261 9.08376501 -1.832034 6.34685616 -5.9375 2.375 C-3.9375 0.375 -3.9375 0.375 0 0 Z " fill="#03FC18" transform="translate(67.9375,27.625)"/>
<path d="M0 0 C0 0.99 0 1.98 0 3 C-1.2065625 3.9590625 -1.2065625 3.9590625 -2.4375 4.9375 C-5.12438713 6.73434261 -5.12438713 6.73434261 -5.8125 9.25 C-5.874375 9.8275 -5.93625 10.405 -6 11 C-4.68 11 -3.36 11 -2 11 C-2 11.99 -2 12.98 -2 14 C-8.625 14.125 -8.625 14.125 -12 13 C-10.31172815 8.21656309 -8.24669842 3.45374604 -3.875 0.625 C-2 0 -2 0 0 0 Z " fill="#D9F200" transform="translate(19,43)"/>
<path d="M0 0 C2.31 1.98 4.62 3.96 7 6 C5.375 8 5.375 8 3 10 C-0.25 10.25 -0.25 10.25 -3 10 C-3.75 8.375 -3.75 8.375 -4 6 C-2.0625 2.75 -2.0625 2.75 0 0 Z " fill="#F8BF00" transform="translate(61,29)"/>
<path d="M0 0 C1.84765625 0.33984375 1.84765625 0.33984375 4.0625 0.9375 C5.16271484 1.22947266 5.16271484 1.22947266 6.28515625 1.52734375 C7.13400391 1.76130859 7.13400391 1.76130859 8 2 C6.94124926 5.40312738 5.99097846 8.01353231 4 11 C0.125 9.125 0.125 9.125 -1 8 C-1.125 4.5 -1.125 4.5 -1 1 C-0.67 0.67 -0.34 0.34 0 0 Z " fill="#0022FB" transform="translate(68,35)"/>
<path d="M0 0 C-0.59927826 3.35595828 -1.84622436 5.37801226 -4 8 C-2.68 8 -1.36 8 0 8 C-0.33 9.32 -0.66 10.64 -1 12 C-2.65 12 -4.3 12 -6 12 C-6.22893102 8.96666395 -6.35414522 6.02633186 -6 3 C-3.95583718 0.7514209 -3.03707969 0 0 0 Z " fill="#00F190" transform="translate(39,45)"/>
<path d="M0 0 C0.99 0.33 1.98 0.66 3 1 C3 5.29 3 9.58 3 14 C1.35 13.67 -0.3 13.34 -2 13 C-2.33 12.01 -2.66 11.02 -3 10 C-2.2884375 9.1028125 -2.2884375 9.1028125 -1.5625 8.1875 C0.46962336 5.3425273 0.23298497 3.41711283 0 0 Z " fill="#7CFF08" transform="translate(19,43)"/>
<path d="M0 0 C1.32 0.33 2.64 0.66 4 1 C3.67 2.98 3.34 4.96 3 7 C4.65 6.67 6.3 6.34 8 6 C7.875 7.875 7.875 7.875 7 10 C3.9375 11.25 3.9375 11.25 1 12 C0.67 8.04 0.34 4.08 0 0 Z " fill="#009FFF" transform="translate(44,37)"/>
<path d="M0 0 C1.32 0 2.64 0 4 0 C4 4.29 4 8.58 4 13 C3.34 13 2.68 13 2 13 C2 12.34 2 11.68 2 11 C1.34 11 0.68 11 0 11 C0.62759865 8.07120629 1.58622659 5.63904371 3 3 C2.01 3.33 1.02 3.66 0 4 C0 2.68 0 1.36 0 0 Z " fill="#00E6EB" transform="translate(39,44)"/>
<path d="M0 0 C0.99 0 1.98 0 3 0 C3 2.97 3 5.94 3 9 C1.35 9 -0.3 9 -2 9 C-1.7525 8.0409375 -1.7525 8.0409375 -1.5 7.0625 C-0.96073333 5.19173179 -0.96073333 5.19173179 -1 4 C-0.67619874 2.66431979 -0.34342449 1.33076989 0 0 Z " fill="#006CFF" transform="translate(50,48)"/>
<path d="M0 0 C0 0.99 0 1.98 0 3 C-2.3125 5.25 -2.3125 5.25 -5 7 C-5.99 6.67 -6.98 6.34 -8 6 C-6.98565881 3.46414701 -6.34981128 2.21863205 -4 0.75 C-2 0 -2 0 0 0 Z " fill="#C4FC01" transform="translate(19,43)"/>
<path d="M0 0 C0.66 0 1.32 0 2 0 C2 0.66 2 1.32 2 2 C3.32 2 4.64 2 6 2 C6 3.32 6 4.64 6 6 C4.02 6 2.04 6 0 6 C0 4.02 0 2.04 0 0 Z " fill="#E5E500" transform="translate(6,40)"/>
<path d="M0 0 C0.66 0 1.32 0 2 0 C2 4.29 2 8.58 2 13 C1.34 13 0.68 13 0 13 C0.01740234 12.07767578 0.01740234 12.07767578 0.03515625 11.13671875 C0.04417969 10.32847656 0.05320312 9.52023438 0.0625 8.6875 C0.07410156 7.88699219 0.08570312 7.08648437 0.09765625 6.26171875 C0.09657855 3.83138666 0.09657855 3.83138666 -1 1 C-0.67 0.67 -0.34 0.34 0 0 Z " fill="#01FD22" transform="translate(28,44)"/>
<path d="M0 0 C0.66 0 1.32 0 2 0 C2.33 1.98 2.66 3.96 3 6 C2.34 6 1.68 6 1 6 C1 7.65 1 9.3 1 11 C0.67 11 0.34 11 0 11 C0 7.37 0 3.74 0 0 Z " fill="#30FF0F" transform="translate(24,43)"/>
<path d="M0 0 C0.66 0 1.32 0 2 0 C1.67 2.64 1.34 5.28 1 8 C0.34 8 -0.32 8 -1 8 C-1.04241723 5.66705225 -1.04092937 3.33297433 -1 1 C-0.67 0.67 -0.34 0.34 0 0 Z " fill="#00A2FF" transform="translate(47,49)"/>
</svg>
